<?xml version="1.0" standalone="no"?>
<!DOCTYPE svg PUBLIC "-//W3C//DTD SVG 20010904//EN"
 "http://www.w3.org/TR/2001/REC-SVG-20010904/DTD/svg10.dtd">
<svg version="1.0" xmlns="http://www.w3.org/2000/svg"
 width="700.000000pt" height="700.000000pt" viewBox="0 0 700.000000 700.000000"
 preserveAspectRatio="xMidYMid meet">
<metadata>
Created by potrace 1.11, written by Peter Selinger 2001-2013
</metadata>
<g transform="translate(0.000000,700.000000) scale(0.100000,-0.100000)"
fill="#000000" stroke="none">
<path d="M3298 6996 c-1 -2 -41 -6 -88 -10 -100 -7 -225 -22 -295 -36 -27 -5
-63 -12 -80 -15 -68 -11 -95 -17 -190 -41 -296 -75 -622 -206 -865 -347 -47
-28 -94 -55 -105 -61 -213 -119 -530 -380 -754 -622 -94 -103 -101 -111 -182
-215 -335 -430 -580 -968 -675 -1484 -9 -49 -17 -97 -19 -105 -2 -9 -6 -43
-10 -75 -4 -33 -9 -69 -11 -80 -19 -101 -26 -569 -11 -715 9 -82 25 -208 33
-255 3 -16 7 -39 9 -50 14 -103 84 -372 133 -515 280 -815 844 -1494 1592
-1917 261 -147 601 -285 835 -339 6 -1 48 -11 95 -23 110 -26 235 -49 313 -57
34 -3 65 -8 68 -10 15 -9 235 -19 419 -19 261 1 331 6 580 46 268 44 547 127
816 245 124 53 298 142 346 175 14 11 29 19 33 19 25 0 384 257 494 354 121
106 294 279 366 366 21 25 41 47 44 50 17 12 180 233 239 324 319 491 510
1045 560 1621 14 163 7 533 -12 695 -14 114 -17 138 -20 156 -2 10 -11 60 -21
109 -138 740 -534 1436 -1105 1944 -130 115 -167 146 -268 219 -296 213 -632
386 -957 493 -248 82 -425 119 -775 165 -48 6 -526 15 -532 10z m477 -449 c22
-3 67 -9 100 -13 33 -3 69 -8 80 -10 11 -2 49 -9 84 -14 374 -61 813 -237
1148 -460 175 -117 331 -245 478 -394 117 -119 127 -130 221 -246 378 -470
613 -1058 661 -1655 13 -165 7 -526 -11 -620 -2 -11 -7 -45 -11 -75 -22 -172
-102 -490 -154 -615 -5 -11 -28 -67 -51 -125 -73 -180 -204 -416 -324 -585
-233 -330 -568 -642 -906 -847 -149 -90 -395 -211 -495 -244 -22 -7 -65 -22
-95 -34 -94 -35 -389 -112 -440 -114 -13 -1 -15 149 -15 1228 0 1114 2 1230
16 1253 l16 24 23 -43 c64 -123 183 -259 312 -356 148 -111 372 -214 515 -238
15 -2 39 -7 53 -10 30 -7 163 -6 205 1 75 13 165 59 203 105 7 8 24 37 37 63
28 58 31 154 8 232 -97 326 -545 664 -943 711 -30 3 -56 7 -58 9 -2 2 66 95
78 105 3 3 51 66 108 140 56 74 130 171 165 216 34 44 89 116 122 160 33 43
62 81 66 84 3 3 50 64 104 135 54 72 115 151 134 176 20 25 46 59 58 75 12 16
66 85 119 154 139 180 175 236 181 287 12 95 -52 180 -142 191 -90 10 -143
-27 -261 -183 -20 -27 -166 -216 -323 -420 -157 -203 -332 -431 -389 -505 -57
-74 -117 -152 -134 -173 l-31 -38 -24 28 c-119 141 -264 254 -416 323 l-67 30
32 44 c44 59 212 278 262 343 23 28 51 64 62 80 12 15 151 195 308 400 157
205 286 377 286 383 0 5 4 10 9 10 15 0 41 78 41 123 0 45 -26 97 -63 128 -28
23 -95 40 -131 33 -72 -13 -104 -44 -277 -269 -68 -88 -184 -239 -258 -335
-74 -96 -171 -222 -215 -280 -44 -58 -86 -112 -93 -120 -6 -8 -38 -49 -69 -90
-200 -260 -329 -426 -337 -431 -5 -4 -36 28 -68 71 -124 164 -331 320 -529
400 -30 12 -64 26 -75 30 -50 21 -198 51 -271 54 -451 18 -533 -372 -158 -748
147 -147 328 -259 517 -321 48 -15 87 -31 87 -36 0 -23 -35 -37 -107 -43 -79
-7 -109 -10 -198 -21 -27 -3 -72 -8 -100 -10 -27 -3 -66 -7 -85 -10 -19 -3
-62 -7 -95 -10 -33 -3 -71 -8 -85 -10 -24 -4 -53 -7 -190 -21 -36 -3 -72 -8
-80 -9 -9 -2 -47 -6 -85 -10 -39 -3 -83 -8 -100 -10 -73 -9 -124 -15 -180 -20
-33 -3 -73 -8 -90 -10 -74 -9 -124 -15 -180 -21 -33 -3 -71 -7 -85 -9 -14 -1
-52 -6 -85 -9 -33 -4 -85 -9 -115 -13 -30 -3 -61 -6 -67 -6 -23 -1 -14 -16 75
-126 48 -60 362 -453 697 -874 336 -421 613 -766 616 -766 3 -1 172 237 375
529 202 291 372 526 376 522 7 -7 10 -925 8 -2148 l0 -151 -107 19 c-199 36
-379 87 -578 165 -95 37 -336 152 -395 188 -278 172 -444 299 -630 485 -212
210 -340 376 -509 658 -62 104 -195 399 -231 512 -27 85 -62 197 -65 210 -2 8
-10 42 -18 75 -9 33 -21 89 -27 125 -6 36 -13 76 -16 90 -2 14 -7 43 -10 65
-2 22 -7 49 -9 60 -33 163 -22 673 20 885 2 14 6 36 9 50 69 409 276 889 534
1238 254 344 545 609 904 825 395 238 867 390 1308 422 52 4 96 8 98 10 5 4
397 -3 437 -8z"/>
</g>
</svg>
